<?xml version="1.0" encoding="UTF-8" standalone="no"?>
<!-- Created with Inkscape (http://www.inkscape.org/) -->

<svg
   xmlns:dc="http://purl.org/dc/elements/1.1/"
   xmlns:cc="http://creativecommons.org/ns#"
   xmlns:rdf="http://www.w3.org/1999/02/22-rdf-syntax-ns#"
   xmlns:svg="http://www.w3.org/2000/svg"
   xmlns="http://www.w3.org/2000/svg"
   xmlns:sodipodi="http://sodipodi.sourceforge.net/DTD/sodipodi-0.dtd"
   xmlns:inkscape="http://www.inkscape.org/namespaces/inkscape"
   id="svg3225"
   version="1.1"
   inkscape:version="0.48.2 r9819"
   width="150"
   height="150"
   sodipodi:docname="logo-coda.svg">
  <title
     id="title2982">Logo du Coda, comité de musique du Collège de Bois-de-Boulogne</title>
  <metadata
     id="metadata3231">
    <rdf:RDF>
      <cc:Work
         rdf:about="">
        <dc:format>image/svg+xml</dc:format>
        <dc:type
           rdf:resource="http://purl.org/dc/dcmitype/StillImage" />
        <dc:title>Logo du Coda, comité de musique du Collège de Bois-de-Boulogne</dc:title>
        <dc:creator>
          <cc:Agent>
            <dc:title />
          </cc:Agent>
        </dc:creator>
        <dc:publisher>
          <cc:Agent>
            <dc:title />
          </cc:Agent>
        </dc:publisher>
        <dc:date>19 septembre 2012</dc:date>
        <dc:language>fr-CA</dc:language>
        <dc:subject>
          <rdf:Bag>
            <rdf:li>musique</rdf:li>
            <rdf:li>coda</rdf:li>
            <rdf:li>bois-de-boulogne</rdf:li>
          </rdf:Bag>
        </dc:subject>
        <dc:contributor>
          <cc:Agent>
            <dc:title>Guillaume Poirier-Morency</dc:title>
          </cc:Agent>
        </dc:contributor>
      </cc:Work>
    </rdf:RDF>
  </metadata>
  <defs
     id="defs3229" />
  <sodipodi:namedview
     pagecolor="#ffffff"
     bordercolor="#666666"
     borderopacity="1"
     objecttolerance="10"
     gridtolerance="10"
     guidetolerance="10"
     inkscape:pageopacity="0"
     inkscape:pageshadow="2"
     inkscape:window-width="1680"
     inkscape:window-height="991"
     id="namedview3227"
     showgrid="false"
     inkscape:zoom="22.627417"
     inkscape:cx="113.27984"
     inkscape:cy="88.721303"
     inkscape:window-x="0"
     inkscape:window-y="27"
     inkscape:window-maximized="1"
     inkscape:current-layer="svg3225" />
  <path
     style="fill:#000000"
     d="m 36.999997,147 c 0,-0.55 0.45,-1 1,-1 0.55,0 1,0.45 1,1 0,0.55 -0.45,1 -1,1 -0.55,0 -1,-0.45 -1,-1 z m 29.5,-2 c -0.33992,-0.55 -0.14147,-1 0.44099,-1 0.58246,0 1.05901,0.45 1.05901,1 0,0.55 -0.19844,1 -0.44098,1 -0.24254,0 -0.7191,-0.45 -1.05902,-1 z m -33,-2 c 0.33992,-0.55 0.81648,-1 1.05902,-1 0.24254,0 0.44098,0.45 0.44098,1 0,0.55 -0.47655,1 -1.05901,1 -0.58246,0 -0.78091,-0.45 -0.44099,-1 z m -1.25046,-3.25 c 0.22891,-0.6875 1.16483,-1.39519 2.07982,-1.57265 1.16013,-0.225 1.48098,0.15332 1.06015,1.25 -0.70939,1.84865 -3.75217,2.16131 -3.13997,0.32265 z m 12.93091,-2 c 0.17576,-1.2375 1.33205,-2.69421 2.56955,-3.23713 2.62091,-1.14985 2.71335,-2.1832 0.82865,-9.26287 -0.76869,-2.8875 -1.18333,-5.25 -0.92141,-5.25 1.81752,0 7.3325,5.58264 7.27938,7.36869 l -0.0634,2.13131 -0.86654,-2.14767 c -0.92189,-2.28486 -2.81473,-3.87763 -3.63424,-3.05811 -0.27198,0.27197 0.066,3.20833 0.75113,6.52524 1.42047,6.87721 0.46317,9.18054 -3.81558,9.18054 -1.96575,0 -2.38425,-0.44258 -2.12754,-2.25 z m 28.81955,0.19098 c 0,-0.58246 0.45,-0.7809 1,-0.44098 0.55,0.33992 1,0.81648 1,1.05902 0,0.24254 -0.45,0.44098 -1,0.44098 -0.55,0 -1,-0.47656 -1,-1.05902 z m -3,-6.44098 c 0,-0.825 0.45,-1.5 1,-1.5 0.55,0 1,0.675 1,1.5 0,0.825 -0.45,1.5 -1,1.5 -0.55,0 -1,-0.675 -1,-1.5 z m -12.5,-0.5 c -0.33992,-0.55 -0.14147,-1 0.44099,-1 0.58246,0 1.05901,0.45 1.05901,1 0,0.55 -0.19844,1 -0.44098,1 -0.24254,0 -0.7191,-0.45 -1.05902,-1 z m -20.48813,-0.75 c 0.006,-0.4125 0.66496,-3.20407 1.46317,-6.2035 0.79822,-2.99942 1.25871,-5.64609 1.02332,-5.88148 -0.2354,-0.23539 0.084,-1.38132 0.70975,-2.5465 0.62576,-1.16519 1.68178,-4.71863 2.34671,-7.89655 1.12695,-5.38606 1.076,-5.84918 -0.75107,-6.827 -1.07801,-0.57694 -2.59986,-0.80345 -3.38189,-0.50336 -1.60789,0.61701 -1.95761,3.60839 -0.42186,3.60839 0.55,0 1,0.72314 1,1.60699 0,1.01759 -0.55015,1.39587 -1.5,1.03138 -1.01061,-0.38781 -1.5,0.0474 -1.5,1.334 0,1.05028 -0.52088,2.23152 -1.15752,2.62498 -0.8216,0.50778 -0.94418,0.017 -0.4224,-1.69098 2.15532,-7.05522 2.30529,-9.84493 0.61166,-11.37765 C 35.102667,96.68792 33.731957,96 32.985707,96 c -0.74624,0 -2.34948,-0.93257 -3.56274,-2.07237 l -2.20594,-2.072376 -3.10851,3.038666 c -1.70969,1.67127 -3.10852,3.28277 -3.10852,3.58111 0,0.29834 2.44825,0.2547 5.44056,-0.097 5.29654,-0.62251 5.42479,-0.57913 4.84484,1.63862 -0.54377,2.07937 -0.34236,2.22039 2.30944,1.61695 2.4947,-0.56768 2.63514,-0.49809 0.99399,0.49254 -1.43294,0.86495 -2.36792,0.86839 -3.73644,0.0137 C 29.848507,101.51295 26.272247,101 22.905157,101 c -6.72517,0 -6.33866,0.59126 -4.32954,-6.62306 0.50851,-1.825942 0.0548,-2.222545 -3.24218,-2.833963 C 5.9921865,89.810653 0.68284654,83.353678 0.57295654,73.591959 0.51875654,68.773209 1.0213065,66.667556 2.9777465,63.517 c 1.36035,-2.190648 -0.3962998,-6.033218 -0.51472,-6.779132 -0.75229,-4.738581 4.7718154,0.148764 7.8708305,-1.297221 6.395752,-2.984225 14.826317,-2.454215 16.30094,-2.658754 1.564664,-0.217028 -5.6483,-7.781896 -7.83096,-7.781896 -0.99211,0 -1.80384,-0.45 -1.80384,-1 0,-1.691748 1.45205,-1.139283 6.57078,2.5 5.32629,3.78685 7.42922,4.352975 7.42922,2 0,-0.825 -0.45857,-1.5 -1.01905,-1.5 -1.17534,0 -0.23211,-4.967676 1.23417,-6.5 0.61916,-0.647038 0.88748,-0.117594 0.7602,1.5 -0.10818,1.375 -0.11034,3.4 -0.005,4.5 0.16728,1.74323 0.34197,1.665632 1.3607,-0.604412 0.64282,-1.432426 1.70232,-3.243642 2.35442,-4.024923 0.65211,-0.781282 1.34759,-2.629781 1.54553,-4.107776 0.5591,-4.174906 1.76883,-4.50905 1.76883,-0.488573 0,4.06244 0.29674,4.383909 4.5,4.875103 2.6642,0.311339 3.03695,0.02692 3.33008,-2.540912 0.18748,-1.642332 -0.24453,-3.255764 -1,-3.734688 -0.91008,-0.57694 -0.954,-0.848029 -0.13909,-0.858506 0.65504,-0.0084 1.46909,0.434687 1.80901,0.984687 0.33992,0.55 1.45398,1 2.47569,1 1.0217,0 2.08956,0.5625 2.37301,1.25 0.34482,0.83635 1.36516,0.321517 3.08334,-1.555764 1.41238,-1.54317 2.56796,-2.400414 2.56796,-1.904987 0,0.495427 -0.87797,1.695333 -1.95105,2.666459 -2.78316,2.518721 -2.33356,7.539616 0.67537,7.542305 2.76374,0.0025 5.22208,-4.403008 5.41187,-9.698353 0.13918,-3.883357 0.32772,-3.170832 1.43353,5.417524 0.4601,3.573463 1.18312,4.647852 4.73664,7.038597 3.77025,2.536563 4.56805,2.715702 7.90209,1.77437 2.03964,-0.575872 4.26714,-1.605741 4.95,-2.288596 0.68285,-0.682855 1.5811,-1.241555 1.9961,-1.241555 0.415,0 -0.35,1.104545 -1.7,2.454545 -1.35,1.35 -2.45455,3.313044 -2.45455,4.362319 0,1.574403 0.99096,2.024241 5.67096,2.574283 3.11903,0.36658 7.73153,1.605926 10.25,2.754102 5.903843,2.691569 9.829243,2.919078 10.434293,0.604751 0.55952,-2.14019 2.96294,-2.276452 4.63418,-0.262735 1.89431,2.282506 0.43506,4.827035 -2.45177,4.275184 -1.50013,-0.286768 -2.64041,0.06292 -2.9652,0.90933 -0.75732,1.97353 -0.29288,10.092785 1.71942,11.472589 1.55129,1.063698 2.3394,1.750213 2.39184,2.883883 0.0518,1.120598 -5.00877,2.308159 -6.58515,4.55266 -3.468693,4.938854 -8.154573,7.306402 -17.246153,8.713648 -4.48062,0.693535 -6.85242,1.518372 -6.85242,2.383054 0,1.58389 -2.17929,1.7431 -3.65535,0.26703 -1.17362,-1.173622 -6.01467,-0.28757 -6.98221,1.27794 -0.34027,0.55056 -0.21312,1.28821 0.28255,1.63922 1.38181,0.97854 4.35501,5.92197 4.35501,7.24093 0,0.6452 -1.6875,-0.91223 -3.75,-3.46096 -3.9029,-4.82302 -5.29961,-5.4962 -7.03722,-3.39177 -0.73579,0.89112 -0.0594,3.69036 2.35588,9.75 1.86339,4.675 2.70841,7.60689 1.87781,6.51531 -0.8306,-1.09158 -2.45614,-4.57908 -3.61231,-7.75 -1.89365,-5.1935 -3.83416,-7.55113 -3.83416,-4.65832 0,0.60884 -0.66197,0.85296 -1.47106,0.54249 -2.1406,-0.82143 -4.52894,2.03784 -4.52894,5.42195 0,2.45714 -0.40244,2.92857 -2.5,2.92857 -2.11111,0 -2.5,-0.46667 -2.5,-3 0,-1.65 -0.45,-3 -1,-3 -0.55,0 -1,0.8423 -1,1.87178 0,1.02947 -1.0911,6.17301 -2.42466,11.43008 -1.33357,5.25707 -2.18108,10.48977 -1.88337,11.62822 0.38254,1.46285 0.0672,2.06992 -1.07534,2.06992 -0.88914,0 -1.61129,-0.3375 -1.60476,-0.75 z m 12.98813,-25.2581 c 0,-3.7593 0.25463,-4.10997 4.10193,-5.64936 11.862054,-6.579281 13.099543,-16.17183 13.151976,-26.691315 0.09283,-9.60533 -3.411246,-15.568362 -6.099826,-19.279837 -1.58428,-2.187032 -4.6875,-4.759121 -7,-5.801913 -3.8279,-1.726144 -4.15408,-2.175376 -4.15408,-5.721352 0,-2.75389 -0.42653,-3.848126 -1.5,-3.848126 -1.07069,0 -1.5,1.089728 -1.5,3.807552 0,3.474196 -0.3463,3.960341 -3.95544,5.552689 -2.17549,0.959825 -5.13963,3.152467 -6.58697,4.872539 0,0 -2.109199,2.011948 -2.63154,3.127403 -0.398642,0.851297 1.615777,2.294083 1.615777,2.294083 2.21057,1.667433 3.083671,0.233026 4.972573,-3.025961 1.51732,-2.617884 2.86365,-4.238806 4.3356,-4.447856 2.21708,-0.314874 2.25,-0.157995 2.25,10.749554 l 0,11.069997 -4.5,0 -4.5,0 0,-4.383369 c 0,-3.316283 0.447921,-3.631921 -1.75,-4.886546 -0.869769,-0.496485 -2.51005,-0.816844 -3.439,-1.200215 -1.35898,-0.560836 -1.82435,0.05204 -2.38163,3.136547 -1.09155,6.041641 -1.92749,7.060857 -5.37605,6.554716 -2.58266,-0.379054 -3.05332,-0.122346 -3.05332,1.665368 0,1.740438 0.60529,2.113499 3.42911,2.113499 3.35142,0 3.45496,0.124594 4.57089,5.5 0.62799,3.025 1.45977,5.5 1.8484,5.5 0.38862,0 1.764507,-0.19528 3.03268,-0.798189 1.192264,-0.566821 1.96895,-0.942819 2.48756,-1.499839 0.334636,-0.359421 0.63136,-1.468639 0.63136,-4.035305 l 0,-4.666667 4.5,0 4.5,0 0,11 C 47.999997,94.98076 47.731797,97 46.538957,97 c -2.13697,0 -5.294923,-4.134294 -6.25505,-7.362226 -0.670593,-2.254522 -0.745283,-2.412243 -2.096771,-1.746557 -1.609257,0.653957 -2.346762,1.458143 -3.187139,2.905832 0,1.441473 7.44197,8.062041 10.25,9.118661 2.37308,0.89296 2.75,1.58643 2.75,5.05954 0,2.91089 0.41513,4.02475 1.5,4.02475 1.08384,0 1.5,-1.11201 1.5,-4.0081 z m 0,-18.991903 0,-11 4.5,0 4.5,0 -0.006,5.25 C 59.983997,89.556204 56.653577,97 52.499597,97 c -1.24242,0 -1.5,-1.88889 -1.5,-11.000003 z m 0,-25.069997 c -0.03096,-11.398958 -0.01762,-11.339384 2.826006,-10.898357 3.70542,1.363859 5.439494,6.424888 5.962864,14.580183 L 60,71.999997 l -4.368493,0 -4.63151,0 z m -28.19377,25.319997 c -0.25154,-1.293097 -1.38031,-1.778324 -4.32332,-1.858484 -2.1906,-0.05967 -4.88291,-0.452536 -5.98291,-0.873043 -1.79634,-0.686704 -1.77842,-0.598793 0.17594,0.863308 4.90187,3.667216 10.68781,4.734252 10.13029,1.868219 z m 65.29455,-0.386065 c 4.30424,-1.438532 8.89922,-5.654167 8.89922,-8.164526 0,-2.055422 0.17592,-2.057531 -9.82087,0.117751 -4.14678,0.902328 -6.67786,3.133185 -8.3969,7.400885 -0.60239,1.495489 -0.18429,1.781955 2.60077,1.781955 1.82521,0 4.84821,-0.511229 6.71778,-1.136065 z m 1.89922,-3.863935 c 0,-0.55 0.45,-1 1,-1 0.55,0 1,0.45 1,1 0,0.55 -0.45,1 -1,1 -0.55,0 -1,-0.45 -1,-1 z m -69.5,0 c -0.33992,-0.55 -1.06803,-1 -1.61803,-1 -0.55,0 -0.72189,0.45 -0.38197,1 0.33992,0.55 1.06804,1 1.61804,1 0.55,0 0.72188,-0.45 0.38196,-1 z m -4.68352,-2.182839 c 3.83123,-0.29193 4.04211,-1.104933 0.68352,-2.635207 -2.81037,-1.280492 -3.06053,-2.576262 -1.25,-6.474787 1.32617,-2.855578 2.2427,-3.337014 3.25,-1.707167 0.93407,1.511355 2.5,1.198169 2.5,-0.5 0,-0.912733 -0.93084,-1.5 -2.37755,-1.5 -1.30766,0 -2.93776,-0.675 -3.62245,-1.5 -1.17252,-1.412802 -0.67502,-1.960331 1.41928,-1.561997 0.5056,0.09616 0.34584,-0.516089 -0.35501,-1.360565 -2.9001,-3.494404 -8.0642705,3.437895 -8.0642705,10.825344 0,5.125162 1.70646,9.085729 3.3330505,7.735777 0.71495,-0.593352 2.73249,-1.187981 4.48343,-1.321398 z m 0.43352,1.520558 c -0.6875,-0.277412 -1.8125,-0.277412 -2.5,0 -0.6875,0.277413 -0.125,0.504386 1.25,0.504386 1.375,0 1.9375,-0.226973 1.25,-0.504386 z m 80.58592,-6.671052 c 1.64092,0 0.9671,-5.994167 -0.93091,-8.281125 -1.0126,-1.220115 -1.43331,-1.229551 -2.79839,-0.06277 -2.67762,2.288651 -4.76988,2.601387 -6.99181,1.045085 -1.16315,-0.814696 -2.11481,-2.355748 -2.11481,-3.424561 0,-2.472245 -1.2115,-2.472056 -3.44917,5.38e-4 -1.67898,1.855254 -1.67846,2.155104 0.0114,6.580067 1.74119,4.559226 1.83012,4.625306 5.35416,3.97835 1.97096,-0.361835 4.01106,-1.072866 4.53356,-1.580067 1.2646,-1.22757 3.55,-1.177474 3.55,0.07782 0,0.55 -0.64844,1 -1.44098,1 -0.79254,0 -1.73025,0.468037 -2.08379,1.040082 -0.423,0.684431 0.32008,0.798412 2.17311,0.333333 1.54875,-0.388712 3.43316,-0.706748 4.18758,-0.706748 z m -21.83592,-1.166667 c 0,-0.825 -0.45,-1.5 -1,-1.5 -0.55,0 -1,0.675 -1,1.5 0,0.825 0.45,1.5 1,1.5 0.55,0 1,-0.675 1,-1.5 z m 6.77084,-12.3125 c 0.21771,-0.653125 -0.31667,-1.1875 -1.1875,-1.1875 -0.87084,0 -1.58334,0.7125 -1.58334,1.583333 0,1.765927 2.15276,1.45839 2.77084,-0.395833 z m -58.77084,-0.570869 c 0,-0.210852 -0.9,-0.618724 -2,-0.90638 -1.1,-0.287656 -2,-0.115141 -2,0.383369 0,0.498509 0.9,0.90638 2,0.90638 1.1,0 2,-0.172516 2,-0.383369 z m 6.70311,67.712012 C 28.786877,126.84615 29.135737,119 30.117887,119 c 0.48516,0 0.88211,0.43588 0.88211,0.96862 0,0.53273 0.675,0.70959 1.5,0.39301 1.07481,-0.41245 1.4937,0.0925 1.47777,1.78138 -0.0256,2.71126 -3.40217,7.59734 -4.27466,6.18563 z m 40.29689,-2.38766 c 0,-1.13246 0.45,-1.7809 1,-1.44098 0.55,0.33992 1,1.26648 1,2.05902 0,0.79254 -0.45,1.44098 -1,1.44098 -0.55,0 -1,-0.92656 -1,-2.05902 z M 75.015317,111.75 c 0.0124,-1.81944 0.20081,-1.96296 0.98468,-0.75 1.25293,1.93876 1.25293,3 0,3 -0.55,0 -0.99311,-1.0125 -0.98468,-2.25 z m -2.45102,-4.45687 c -0.54269,-1.4252 -0.42782,-1.54006 0.55979,-0.5598 0.68342,0.67834 0.99067,1.48524 0.68279,1.79313 -0.30789,0.30789 -0.86705,-0.24711 -1.24258,-1.23333 z m 4.4357,-5.73411 c 0,-0.85746 0.45,-1.55902 1,-1.55902 0.55,0 1,0.42344 1,0.94098 0,0.51754 -0.45,1.2191 -1,1.55902 -0.55,0.33992 -1,-0.0835 -1,-0.94098 z M 6.9999965,96.06215 c 0,-0.51582 0.86883,-0.87241 1.93073,-0.79242 1.06189,0.08 1.7103305,0.50203 1.4409805,0.93785 C 9.6864165,97.3164 6.9999965,97.20052 6.9999965,96.06215 z M 11.499997,94 c -0.33992,-0.55 -0.14147,-1.000002 0.44099,-1.000002 0.58246,0 1.05901,0.450002 1.05901,1.000002 0,0.55 -0.19844,1 -0.44098,1 -0.24254,0 -0.7191,-0.45 -1.05902,-1 z M 127.31487,92.096048 c -0.42462,-1.623721 -0.9618,-1.770903 -3.64978,-1 -1.73354,0.497172 -4.0208,0.903949 -5.0828,0.903949 -1.7965,0 -1.76742,-0.174034 0.41771,-2.5 1.29175,-1.375 2.83269,-2.486316 3.42431,-2.469591 0.59163,0.01672 0.28819,0.489085 -0.67431,1.04969 -3.17492,1.849223 -1.82372,2.659309 2.70652,1.622642 4.70466,-1.076578 7.54348,0.02219 7.54348,2.9197 0,2.123652 -4.11298,1.661542 -4.68513,-0.52639 z m 0.98787,-41.238947 c 2.76782,1.012607 4.05275,4.642896 4.05275,4.642896 l 8.32225,17.864764 c 4.57724,9.82562 8.32226,18.03812 8.32226,18.25 0,0.21188 -1.57989,0.385236 -3.51087,0.385236 -3.26196,0 -3.7021,-0.389921 -6.20831,-5.5 l -2.69746,-5.5 -8.80254,0 -8.80255,0 -2.69745,5.5 c -2.47172,5.039738 -2.97856,5.5 -6.05653,5.5 -3.0233,0 -3.2894,-0.224908 -2.66217,-2.25 0.38329,-1.2375 1.7712,-4.3875 3.08423,-7 1.31304,-2.6125 1.92976,-4.75 1.3705,-4.75 -0.55927,0 -1.01685,-0.498145 -1.01685,-1.106989 0,-0.608844 0.675,-0.847967 1.5,-0.531385 0.825,0.316583 1.5,0.179282 1.5,-0.305113 0,-0.484395 -1.9125,-1.220438 -4.25,-1.635653 -3.80785,-0.676395 -3.98991,-0.828631 -1.75,-1.463316 1.375,-0.38961 3.52041,-0.488675 4.76758,-0.220143 2.01816,0.434536 2.73311,-0.516069 6.5,-8.642477 L 123.5,54.964206 c 0,0 2.37387,-5.32495 4.80274,-4.107105 m 3.53881,19.392896 c -1.66817,-3.7125 -3.36595,-7.103505 -3.77286,-7.535567 C 127.43523,62.041803 121,74.436985 121,76.329753 c 0,0.368634 3.12178,0.670244 6.93728,0.670244 l 6.93729,0 z m -31.71153,18.85152 c -1.114403,-0.705953 -1.041263,-1.051809 0.39204,-1.853925 0.9691,-0.542339 2.60758,-0.764949 3.64105,-0.49469 1.46984,0.384372 1.63001,0.791438 0.73552,1.869238 -1.30841,1.57654 -2.79995,1.726481 -4.76861,0.479377 z M 69.999997,45.467773 c 0,-1.674828 4.29346,-3.768139 4.83036,-2.355084 0.41001,1.079096 -2.30546,3.887308 -3.75893,3.887308 -0.58928,0 -1.07143,-0.689501 -1.07143,-1.532224 z m 14.5,-1.467776 c 0.33992,-0.55 1.04148,-1 1.55902,-1 0.51754,0 0.94098,0.45 0.94098,1 0,0.55 -0.70155,1 -1.55901,1 -0.85746,0 -1.28091,-0.45 -0.94099,-1 z M -3.4589151e-6,38.44098 c 0,-0.857459 0.4499999989151,-1.280902 0.9999999989151,-0.940983 0.54999996,0.339919 0.99999996,1.041476 0.99999996,1.559017 0,0.517541 -0.45,0.940983 -0.99999996,0.940983 -0.55,0 -0.9999999989151,-0.701558 -0.9999999989151,-1.559017 z M 7.7499965,37.380003 c -1.5125,-0.794134 -2.75,-1.934609 -2.75,-2.534388 0,-0.711044 0.53037,-0.650345 1.52417,0.174438 2.38994,1.983476 2.72219,0.564417 0.80779,-3.450123 -1.78305,-3.739094 -1.23641,-6.435115 1.48896,-7.343572 2.0861805,-0.695395 2.6508105,2.955536 0.67995,4.39666 -1.76415,1.289984 -1.76435,1.466271 -0.006,5.365588 0.9999505,2.217479 1.6351705,4.212568 1.4116105,4.433529 -0.22355,0.220962 -1.6439705,-0.247998 -3.1564805,-1.042132 z M 32.364197,33.506686 c -0.34637,-0.902618 -0.15026,-2.120628 0.4358,-2.706689 1.52361,-1.523609 4.41041,-0.131088 4.01243,1.935492 -0.44331,2.301882 -3.64767,2.857428 -4.44823,0.771197 z m 5.7903,-1.944342 c 0.19003,-0.917394 0.7955,-1.64422 1.3455,-1.615168 1.48429,0.0784 1.21161,2.315619 -0.3455,2.834655 -0.84112,0.280374 -1.21599,-0.17677 -1,-1.219487 z m 4.8455,0.49667 c 0,-0.517541 0.45,-1.219098 1,-1.559017 0.55,-0.339919 1,0.08352 1,0.940983 0,0.857459 -0.45,1.559017 -1,1.559017 -0.55,0 -1,-0.423442 -1,-0.940983 z m 4.69386,-0.698497 c -0.93325,-0.933243 0.19452,-2.36052 1.86516,-2.36052 0.79254,0 1.44098,0.675 1.44098,1.5 0,1.50623 -2.11099,2.055676 -3.30614,0.86052 z m 42.55614,-0.789365 c 1.60388,-2.076816 0.5991,-2.406051 -2.89167,-0.947514 -3.27837,1.36979 -3.79784,1.365412 -5.20714,-0.04388 -1.11322,-1.113224 -1.25595,-1.874995 -0.49404,-2.6369 0.7619,-0.761905 1.56622,-0.576632 2.78418,0.64133 1.59579,1.595788 1.94653,1.601283 5.13572,0.08046 3.73321,-1.780246 4.42111,-0.959632 1.67295,1.99572 -0.9625,1.035067 -1.4125,1.44492 -1,0.910784 z m 7.75,-0.630172 c 0,-0.582459 0.45,-0.780902 1,-0.440983 0.55,0.339919 1,0.816476 1,1.059017 0,0.242541 -0.45,0.440983 -1,0.440983 -0.55,0 -1,-0.476558 -1,-1.059017 z M 103,29.199997 c 0,-1.051669 2.17195,-3.2 3.23518,-3.2 0.45935,0 0.35352,0.9 -0.23518,2 -1.05696,1.97494 -3,2.752158 -3,1.2 z m -75.306193,-4.4595 c -2.95956,-5.050122 -3.16571,-5.7405 -1.71413,-5.7405 1.24241,0 5.25998,7.781032 4.77257,9.24327 -0.20055,0.601628 -1.57684,-0.974619 -3.05844,-3.50277 z m 34.88947,-0.4905 c 0.0975,-2.6125 0.51846,-6.502552 0.93543,-8.644559 0.54803,-2.815347 0.44265,-3.699593 -0.3803,-3.190983 -1.99207,1.231166 -1.26804,-3.3201 1.02062,-6.415683 2.84697,-3.850726 4.11268,-2.893312 2.20643,1.668988 -0.83283,1.993246 -1.77237,7.608417 -2.08787,12.47816 -0.59136,9.127717 -2.01011,12.564318 -1.69431,4.104077 z m -5.08328,-18.25 c 0.33992,-0.55 1.29304,-1 2.11804,-1 0.825,0 1.22188,0.45 0.88196,1 -0.33992,0.55 -1.29303,1 -2.11803,1 -0.825,0 -1.22189,-0.45 -0.88197,-1 z"
     id="path3255"
     inkscape:connector-curvature="0"
     sodipodi:nodetypes="sssssssssssssssssssssssscscsssssssssssssssssscscssssssssssssscsssssscssssssssssssssscssssssscsssssscssssssssssssssssssssssssssssssssssssssccsccsssssssssssscccsssssssssssscccsssccsssscccccsccccsccccssssssssssssssssssssssssssssssssssssscssssscssssssccssssssssssssssssssssssssssssssscssssssscssssssssssssssssccsssscccssssssssssssccsssscssssssssssssssssssssssssssscssssssssssssssssssssssssssssssssssssscsssssssssssss" />
</svg>
